<svg version="1.1" id="Layer_1" xmlns="http://www.w3.org/2000/svg" xmlns:xlink="http://www.w3.org/1999/xlink" x="0px" y="0px"
	 width="100%" viewBox="0 0 550 425" enable-background="new 0 0 550 425" xml:space="preserve">
<path fill="none" opacity="1.000000" stroke="#000000" stroke-linecap="round" stroke-linejoin="round" stroke-width="3.000000"
	d="
M317.500000,297.500000 
	C318.667175,303.107788 318.137634,308.832672 318.828552,314.520813 
	C321.685303,338.039978 325.854126,360.920044 341.463837,380.029541 
	C350.552246,391.155609 361.656372,399.132660 376.019592,400.834747 
	C389.649200,402.449860 402.670410,399.359192 415.034363,393.067535 
	C433.358826,383.742706 444.127563,368.173401 452.001190,350.000519 
	C459.080200,333.661865 463.430817,316.577087 466.015137,299.002228 
	C466.284271,297.171844 467.918793,295.477478 466.146454,293.000000 
	C462.848480,293.000000 459.173523,293.043396 455.500275,292.983612 
	C453.315643,292.948120 453.314392,294.347290 452.943146,295.987122 
	C449.692871,310.344818 442.361206,322.280426 430.453552,330.936096 
	C413.117706,343.537476 391.580811,340.191315 378.500336,320.999756 
	C370.651672,309.484253 366.444397,296.617462 363.936707,283.011658 
	C361.951385,272.240326 361.892090,261.311951 360.646423,250.540894 
	C359.218933,238.197830 361.411407,226.177872 361.239929,213.996628 
	C361.089935,203.346146 362.764709,192.637970 364.061279,182.007462 
	C365.583862,169.523651 366.885468,157.026779 368.111786,144.510956 
	C369.337250,132.003876 370.702576,119.497353 372.192596,107.023003 
	C373.068451,99.690590 373.208527,92.248032 374.863312,84.968925 
	C375.432678,82.464523 376.389191,81.933273 378.500275,81.989799 
	C380.332306,82.038857 382.166656,82.000000 384.000000,82.000000 
	C409.500000,82.000000 435.000000,81.993019 460.500000,82.014603 
	C462.338287,82.016159 464.227417,81.664970 466.500000,82.709129 
	C466.500000,63.840775 466.500000,45.172619 466.500000,26.000000 
	C464.844055,26.000000 463.172028,26.000000 461.500000,26.000000 
	C377.666656,26.000000 293.832703,25.822214 210.000443,26.124624 
	C188.961227,26.200520 168.412369,29.657028 149.467133,39.939442 
	C134.475082,48.076279 122.277779,59.118496 112.490501,72.993301 
	C99.138611,91.921463 92.629219,113.736229 86.048950,135.514786 
	C85.343880,137.848343 87.012016,138.177216 89.002800,138.040924 
	C91.491142,137.870590 94.001167,137.958191 96.499214,138.028137 
	C97.158104,138.046600 97.807320,138.410095 99.017418,138.789688 
	C118.027657,100.016655 150.302109,82.929718 192.869797,82.323021 
	C193.551514,90.193146 192.112610,97.876762 191.616226,105.474930 
	C191.318481,110.032288 190.917145,114.877884 190.280380,119.538307 
	C188.748032,130.753357 188.869019,142.183151 187.948029,153.495773 
	C186.833939,167.180298 185.028595,180.813843 184.152939,194.509781 
	C183.812073,199.841293 183.099869,205.156799 183.018524,210.500275 
	C182.765198,227.137207 179.706146,243.410660 175.849182,259.463776 
	C172.586258,273.044403 168.282440,286.383850 162.061188,299.030090 
	C158.400253,306.471832 153.284836,312.861694 148.473160,319.480499 
	C142.135864,328.197845 134.885788,336.355042 130.109299,346.053833 
	C125.005791,356.416687 121.711205,367.353455 126.020821,378.992279 
	C129.991928,389.716888 138.576218,395.162048 149.014725,397.944733 
	C164.215530,401.996979 174.863968,397.207275 183.965759,385.473450 
	C194.870804,371.414917 200.326889,354.790741 204.878494,337.967133 
	C209.102219,322.355438 212.287964,306.478516 215.157730,290.528381 
	C217.225571,279.035339 218.958054,267.489929 220.877991,255.979645 
	C222.473816,246.412369 222.951981,236.661407 224.012360,227.001358 
	C225.293594,215.328964 226.939224,203.688248 227.865402,191.989349 
	C228.234161,187.331558 228.656509,182.665970 228.996567,177.999756 
	C229.871857,165.989258 230.515594,153.965393 231.915802,141.990158 
	C232.476227,137.197037 232.377319,132.334778 232.853149,127.485588 
	C233.977219,116.030472 234.247742,104.494011 235.051392,93.003593 
	C235.297028,89.491417 236.445175,86.063599 235.882645,82.500000 
	C268.000000,82.500000 299.500000,82.500000 331.355011,82.500000 
	C332.812134,87.000000 331.283356,91.684944 330.636993,95.944923 
	C330.058868,99.755363 329.809875,103.735977 329.266754,107.538101 
	C327.608582,119.146660 326.677368,130.867081 325.085083,142.511627 
	C323.976624,150.617905 323.746948,158.840851 322.981903,166.998306 
	C321.715179,180.504547 320.156738,193.985931 319.079468,207.506332 
	C318.589752,213.652542 318.586334,219.832703 318.128479,226.009521 
	C316.500793,247.970505 317.037964,269.995605 317.012054,292.000000 
	C317.010071,293.674286 316.698730,295.396790 317.500000,297.000000 
"/>
</svg>